<?xml version="1.0" encoding="UTF-8"?>
<svg xmlns="http://www.w3.org/2000/svg" xmlns:xlink="http://www.w3.org/1999/xlink" width="200px" height="200px" viewBox="0 0 200 200" version="1.1">
<defs>
<linearGradient id="linear0" gradientUnits="userSpaceOnUse" x1="128" y1="0" x2="128" y2="256" gradientTransform="matrix(0.78125,0,0,0.78125,0,0)">
<stop offset="0.193" style="stop-color:rgb(98.823529%,70.196078%,69.803922%);stop-opacity:1;"/>
<stop offset="1" style="stop-color:rgb(77.254902%,52.941176%,93.333333%);stop-opacity:1;"/>
</linearGradient>
<linearGradient id="linear1" gradientUnits="userSpaceOnUse" x1="189.089005" y1="126.764999" x2="153.565002" y2="201.132004" gradientTransform="matrix(0.78125,0,0,0.78125,0,0)">
<stop offset="0" style="stop-color:rgb(100%,8.627451%,22.352941%);stop-opacity:1;"/>
<stop offset="1" style="stop-color:rgb(100%,8.627451%,22.352941%);stop-opacity:0;"/>
</linearGradient>
</defs>
<g id="surface1">
<path style=" stroke:none;fill-rule:nonzero;fill:url(#linear0);" d="M 46.875 0 L 153.125 0 C 179.011719 0 200 20.988281 200 46.875 L 200 153.125 C 200 179.011719 179.011719 200 153.125 200 L 46.875 200 C 20.988281 200 0 179.011719 0 153.125 L 0 46.875 C 0 20.988281 20.988281 0 46.875 0 Z M 46.875 0 "/>
<path style=" stroke:none;fill-rule:evenodd;fill:rgb(19.215687%,15.294118%,29.019609%);fill-opacity:1;" d="M 123.214844 25.789062 C 124.492188 27.371094 125.144531 29.511719 126.445312 33.789062 L 154.878906 127.195312 C 144.199219 121.652344 132.738281 117.773438 120.886719 115.683594 L 102.371094 53.121094 C 102.148438 52.367188 101.570312 51.769531 100.820312 51.519531 C 100.070312 51.269531 99.246094 51.402344 98.617188 51.878906 C 98.199219 52.191406 97.894531 52.628906 97.746094 53.128906 L 79.460938 115.652344 C 67.554688 117.730469 56.039062 121.617188 45.3125 127.179688 L 73.886719 33.765625 C 75.191406 29.496094 75.84375 27.363281 77.121094 25.785156 C 78.246094 24.386719 79.710938 23.300781 81.378906 22.632812 C 83.261719 21.875 85.492188 21.875 89.960938 21.875 L 110.367188 21.875 C 114.835938 21.875 117.070312 21.875 118.960938 22.632812 C 120.625 23.304688 122.089844 24.394531 123.21875 25.789062 "/>
<path style=" stroke:none;fill-rule:evenodd;fill:rgb(100%,36.470589%,0.392157%);fill-opacity:1;" d="M 126.621094 131.640625 C 121.933594 135.648438 112.574219 138.382812 101.800781 138.382812 C 88.570312 138.382812 77.488281 134.261719 74.542969 128.726562 C 73.492188 131.898438 73.257812 135.53125 73.257812 137.851562 C 73.257812 137.851562 72.566406 149.246094 80.488281 157.171875 C 80.492188 153.058594 83.824219 149.722656 87.941406 149.722656 C 94.992188 149.722656 94.988281 155.875 94.976562 160.867188 L 94.976562 161.3125 C 94.976562 168.890625 99.609375 175.386719 106.195312 178.125 C 105.183594 176.039062 104.660156 173.746094 104.660156 171.429688 C 104.660156 164.199219 108.902344 161.507812 113.835938 158.382812 C 117.757812 155.894531 122.117188 153.128906 125.121094 147.582031 C 126.742188 144.597656 127.585938 141.25 127.582031 137.851562 C 127.582031 135.683594 127.242188 133.597656 126.621094 131.636719 "/>
<path style=" stroke:none;fill-rule:evenodd;fill:url(#linear1);" d="M 126.621094 131.640625 C 121.933594 135.648438 112.574219 138.382812 101.800781 138.382812 C 88.570312 138.382812 77.488281 134.261719 74.542969 128.726562 C 73.492188 131.898438 73.257812 135.53125 73.257812 137.851562 C 73.257812 137.851562 72.566406 149.246094 80.488281 157.171875 C 80.492188 153.058594 83.824219 149.722656 87.941406 149.722656 C 94.992188 149.722656 94.988281 155.875 94.976562 160.867188 L 94.976562 161.3125 C 94.976562 168.890625 99.609375 175.386719 106.195312 178.125 C 105.183594 176.039062 104.660156 173.746094 104.660156 171.429688 C 104.660156 164.199219 108.902344 161.507812 113.835938 158.382812 C 117.757812 155.894531 122.117188 153.128906 125.121094 147.582031 C 126.742188 144.597656 127.585938 141.25 127.582031 137.851562 C 127.582031 135.683594 127.242188 133.597656 126.621094 131.636719 "/>
</g>
</svg>
