<?xml version="1.0" encoding="UTF-8"?>
<svg xmlns="http://www.w3.org/2000/svg" xmlns:xlink="http://www.w3.org/1999/xlink" width="512px" height="512px" viewBox="0 0 512 512" version="1.1">
<defs>
<linearGradient id="linear0" gradientUnits="userSpaceOnUse" x1="8.19" y1="23" x2="16.91" y2="18.889999" gradientTransform="matrix(22.3888,0,0,22.3888,-10.768,-35.167999)">
<stop offset="0" style="stop-color:rgb(84.705882%,20%,20%);stop-opacity:1;"/>
<stop offset="1" style="stop-color:rgb(94.117647%,25.490196%,100%);stop-opacity:1;"/>
</linearGradient>
</defs>
<g id="surface1">
<path style=" stroke:none;fill-rule:nonzero;fill:url(#linear0);" d="M 176.398438 327.984375 C 167.886719 355.984375 173.9375 394.929688 194.078125 413.28125 L 194.078125 412.609375 L 194.753906 410.816406 C 197.214844 398.960938 206.847656 391.566406 219.167969 392.015625 C 230.574219 392.238281 237.089844 398.289062 238.640625 411.488281 C 239.3125 416.414062 239.3125 421.34375 239.535156 426.496094 L 239.535156 428.0625 C 239.535156 439.265625 242.671875 450 248.945312 459.40625 C 254.542969 468.367188 262.382812 475.296875 272.894531 480 L 272.449219 479.105469 L 272 477.3125 C 264.160156 453.808594 269.761719 437.472656 290.351562 423.585938 L 296.625 419.328125 L 310.511719 410.160156 C 326.648438 398.875 337.101562 381.148438 339.167969 361.566406 C 340.289062 353.054688 339.167969 344.769531 336.703125 336.71875 L 333.34375 338.960938 C 302.222656 355.519531 266.625 361.359375 232.144531 354.640625 C 211.328125 351.488281 191.183594 345.679688 176.175781 328.207031 Z M 176.398438 327.984375 "/>
<path style=" stroke:none;fill-rule:nonzero;fill:rgb(9.019608%,9.803922%,11.764706%);fill-opacity:1;" d="M 78.800781 323.054688 C 78.800781 323.054688 138.574219 293.9375 198.574219 293.9375 L 244.015625 153.792969 C 245.585938 147.070312 250.511719 142.59375 256.113281 142.59375 C 261.710938 142.59375 266.414062 147.070312 268.207031 154.015625 L 313.425781 293.953125 C 384.625 293.953125 433.214844 323.070312 433.214844 323.070312 L 331.34375 45.441406 C 328.65625 37.152344 323.503906 32 317.007812 32 L 195.214844 32 C 188.71875 32 184.015625 37.152344 180.878906 45.441406 Z M 78.800781 323.054688 "/>
</g>
</svg>
